<svg xmlns="http://www.w3.org/2000/svg" viewBox="0 0 24 24" width="24" height="24"><circle cx="12" cy="12" r="10" fill="#25D366"/><path d="M17 12.5c-.3-.2-1.7-.8-2-.9s-.5-.1-.7.1c-.2.3-.7.9-.9 1.1-.2.2-.3.2-.6.1-.3-.1-1.2-.4-2.3-1.4-.8-.8-1.4-1.7-1.5-2-.1-.3 0-.4.1-.6.1-.1.3-.3.4-.5.1-.1.2-.3.2-.4.1-.2 0-.3 0-.5s-.4-1-.6-1.3c-.2-.3-.4-.3-.5-.3h-.5c-.2 0-.4.1-.6.3-.2.2-.7.7-.7 1.7s.7 2 .8 2.1c.1.1 1.5 2.3 3.6 3.2.5.2.9.4 1.2.5.5.2 1 .1 1.3.1.4-.1 1.2-.5 1.4-1 .2-.4.2-.8.1-1-.1 0-.3-.1-.6-.2z" fill="#fff"/></svg>
